<svg xmlns="http://www.w3.org/2000/svg" viewBox="0 0 79.2 79.4"><defs><style>.cls-1{fill:#010101;}.cls-2{fill:#fff;}</style></defs><title>Asset 2</title><g id="Layer_2" data-name="Layer 2"><g id="Layer_1-2" data-name="Layer 1"><path class="cls-1" d="M79.2,39.7A39.6,39.6,0,1,0,39.6,79.4,39.58,39.58,0,0,0,79.2,39.7"/><path class="cls-2" d="M39.6,17.8c7.1,0,8,0,10.8.2a17.09,17.09,0,0,1,5,.9,10.29,10.29,0,0,1,3.1,2,8.3,8.3,0,0,1,2,3.1,13.73,13.73,0,0,1,.9,5c.1,2.8.2,3.7.2,10.8s0,8-.2,10.8a17.09,17.09,0,0,1-.9,5,10.29,10.29,0,0,1-2,3.1,8.3,8.3,0,0,1-3.1,2,13.73,13.73,0,0,1-5,.9c-2.8.1-3.7.2-10.8.2s-8,0-10.8-.2a17.09,17.09,0,0,1-5-.9,10.29,10.29,0,0,1-3.1-2,8.3,8.3,0,0,1-2-3.1,13.73,13.73,0,0,1-.9-5c-.1-2.8-.2-3.7-.2-10.8s0-8,.2-10.8a17.09,17.09,0,0,1,.9-5,10.29,10.29,0,0,1,2-3.1,8.3,8.3,0,0,1,3.1-2,13.73,13.73,0,0,1,5-.9c2.8-.2,3.7-.2,10.8-.2m0-4.9c-7.3,0-8.2,0-11,.2a20.93,20.93,0,0,0-6.5,1.2,12.06,12.06,0,0,0-4.7,3.1,13.71,13.71,0,0,0-3.1,4.7,17.92,17.92,0,0,0-1.2,6.5c-.1,2.9-.2,3.8-.2,11s0,8.2.2,11a20.93,20.93,0,0,0,1.2,6.5,12.06,12.06,0,0,0,3.1,4.7,13.71,13.71,0,0,0,4.7,3.1,17.92,17.92,0,0,0,6.5,1.2c2.9.1,3.8.2,11,.2s8.2,0,11-.2a20.93,20.93,0,0,0,6.5-1.2,12.06,12.06,0,0,0,4.7-3.1,13.71,13.71,0,0,0,3.1-4.7,17.92,17.92,0,0,0,1.2-6.5c.1-2.9.2-3.8.2-11s0-8.2-.2-11a20.93,20.93,0,0,0-1.2-6.5,12.06,12.06,0,0,0-3.1-4.7,13.71,13.71,0,0,0-4.7-3.1,17.92,17.92,0,0,0-6.5-1.2c-2.8-.1-3.7-.2-11-.2Z"/><path class="cls-2" d="M39.6,26A13.7,13.7,0,1,0,53.3,39.7,13.72,13.72,0,0,0,39.6,26Zm0,22.6a8.9,8.9,0,1,1,8.9-8.9A8.92,8.92,0,0,1,39.6,48.6Z"/><circle class="cls-2" cx="53.9" cy="25.4" r="3.2"/></g></g></svg>