<?xml version="1.0" encoding="utf-8"?>
<!-- Generator: Adobe Illustrator 22.0.0, SVG Export Plug-In . SVG Version: 6.00 Build 0)  -->
<svg version="1.1" id="Layer_1" xmlns="http://www.w3.org/2000/svg" xmlns:xlink="http://www.w3.org/1999/xlink" x="0px" y="0px"
	 viewBox="0 0 95.8 95.8" style="enable-background:new 0 0 95.8 95.8;" xml:space="preserve">
<style type="text/css">
	.st0{fill:#FFFFFF;}
</style>
<title>Pause</title>
<g id="Path_3372">
	<path class="st0" d="M47.9,94.8c-25.8,0-46.7-21-46.6-46.8c0-25.8,21-46.7,46.8-46.6s46.7,21,46.6,46.8c0,18.7-11.3,35.6-28.5,42.9
		C60.4,93.5,54.1,94.8,47.9,94.8z"/>
	<path class="st0" d="M47.9,2C22.7,2.1,2.3,22.5,2.3,47.7s20.5,45.6,45.7,45.6s45.6-20.5,45.6-45.7c0-18.3-11-34.8-27.9-42
		C60.1,3.2,54,2,47.9,2 M47.9,0c26.4,0,47.9,21.4,47.9,47.9S74.3,95.8,47.9,95.8S0,74.3,0,47.9C0,21.4,21.4,0,47.9,0
		C47.9,0,47.9,0,47.9,0z"/>
</g>
<g id="Rectangle_506">
	<rect x="31.2" y="27.2" width="11.1" height="42.3"/>
	<rect x="32.2" y="28.2" width="9.1" height="40.3"/>
</g>
<g id="Rectangle_507">
	<rect x="54.4" y="27.2" width="11.1" height="42.3"/>
	<rect x="55.4" y="28.2" width="9.1" height="40.3"/>
</g>
</svg>
