<svg xmlns="http://www.w3.org/2000/svg" viewBox="0 0 79.2 79.4"><defs><style>.cls-1{fill:#010101;}.cls-2{fill:#fff;}</style></defs><title>Asset 3</title><g id="Layer_2" data-name="Layer 2"><g id="Layer_1-2" data-name="Layer 1"><path class="cls-1" d="M79.2,39.7A39.6,39.6,0,1,0,39.6,79.4,39.58,39.58,0,0,0,79.2,39.7"/><path class="cls-2" d="M56.1,64.5c-1.9,2-6.3,3.4-10.3,3.5h-.4c-13.3,0-16.2-9.8-16.2-15.5v-16H23.9a1.11,1.11,0,0,1-1.1-1.1h0V27.9A2,2,0,0,1,24,26.1c6.8-2.4,9-8.4,9.3-12.9q.15-1.8,1.8-1.8h7.8A1.11,1.11,0,0,1,44,12.5V25.2h9.2a1.11,1.11,0,0,1,1.1,1.1v9a1.11,1.11,0,0,1-1.1,1.1H44V51.1c0,3.7,2.4,4.7,3.9,4.7a10.12,10.12,0,0,0,3.6-.8,1.81,1.81,0,0,1,1.4-.2c.4.1.6.4.8.9l2.4,7.1C56.3,63.4,56.5,64,56.1,64.5Z"/></g></g></svg>