<svg xmlns="http://www.w3.org/2000/svg" viewBox="0 0 79.2 79.4"><defs><style>.cls-1{fill:#010101;}.cls-2{fill:#fff;}</style></defs><title>Asset 6</title><g id="Layer_2" data-name="Layer 2"><g id="Layer_1-2" data-name="Layer 1"><path class="cls-1" d="M79.2,39.7A39.6,39.6,0,1,0,39.6,79.4,39.58,39.58,0,0,0,79.2,39.7"/><path class="cls-2" d="M30.9,48.6H28.3V47.1c-1,1.1-1.8,1.7-2.7,1.7A1.54,1.54,0,0,1,24,47.7a4.92,4.92,0,0,1-.3-2v-11h2.6V46c.1.4.2.5.6.5s1-.4,1.5-1.2V34.7H31V48.6Z"/><path class="cls-2" d="M19,44.5c.1,1.4-.3,2.1-1.1,2.1s-1.2-.7-1.1-2.1V39c-.1-1.4.3-2,1.1-2s1.2.6,1.1,2v5.5Zm2.7-5.3a5.71,5.71,0,0,0-.8-3.3A3.6,3.6,0,0,0,18,34.6a3.47,3.47,0,0,0-2.9,1.3,5.71,5.71,0,0,0-.8,3.3v4.9a5.35,5.35,0,0,0,.8,3.2,3.7,3.7,0,0,0,5.8,0,5.35,5.35,0,0,0,.8-3.2V39.2Z"/><path class="cls-2" d="M11.3,41v7.6H8.6V41S5.8,31.7,5.2,30H8.1L10,37.2,11.9,30h2.9L11.3,41Z"/><path class="cls-2" d="M57.7,36.9a1.94,1.94,0,0,0-1.3.6v8.3a1.94,1.94,0,0,0,1.3.6c.7,0,1-.5,1-1.9V38.6c0-1.3-.3-1.7-1-1.7Z"/><path class="cls-2" d="M67.9,38.6c0-1.3-.3-1.7-1.2-1.7s-1.2.4-1.2,1.6V40h2.3V38.6Z"/><path class="cls-2" d="M66.8,46.5a1,1,0,0,0,1.1-1V43.8h2.6v.4c0,.8-.1,1.4-.1,1.6a3.39,3.39,0,0,1-.6,1.5,3.44,3.44,0,0,1-3,1.5,3.61,3.61,0,0,1-3-1.4,5.31,5.31,0,0,1-.9-3.2V39.4a5.71,5.71,0,0,1,.8-3.3,3.61,3.61,0,0,1,3-1.4,3.56,3.56,0,0,1,2.9,1.4,5.58,5.58,0,0,1,.8,3.2v2.8h-5v2.5c.2,1.3.6,1.9,1.4,1.9Zm-5.4-2a8.24,8.24,0,0,1-.3,2.7,2.11,2.11,0,0,1-2,1.6,3.29,3.29,0,0,1-2.6-1.6v1.4H54V30.2h2.5v6a3.57,3.57,0,0,1,2.6-1.6,2,2,0,0,1,2,1.6,8.66,8.66,0,0,1,.3,2.7v5.6Zm-9.5,4.1H49.3V47.1c-1,1.1-1.8,1.7-2.7,1.7A1.54,1.54,0,0,1,45,47.7a4.92,4.92,0,0,1-.3-2V34.8h2.6V46c.1.4.2.5.6.5s1-.4,1.5-1.2V34.8H52V48.6Zm-9.9,0H39.3V32.8H36.4V30.2h8.7v2.6h-3V48.6ZM73.6,31.5s-.4-2.8-1.6-4.1a6,6,0,0,0-4.1-1.7c-5.7-.4-14.4-.4-14.4-.4h0s-8.6,0-14.4.4A5.85,5.85,0,0,0,35,27.4c-1.2,1.2-1.6,4.1-1.6,4.1a62.86,62.86,0,0,0-.4,6.6v3.1a62.86,62.86,0,0,0,.4,6.6s.4,2.8,1.6,4.1a6.68,6.68,0,0,0,4.5,1.7c3.3.3,13.9.4,13.9.4s8.6,0,14.4-.4a5.85,5.85,0,0,0,4.1-1.7c1.2-1.2,1.6-4.1,1.6-4.1a62.86,62.86,0,0,0,.4-6.6V38.1a50.19,50.19,0,0,0-.3-6.6Z"/></g></g></svg>