<svg xmlns="http://www.w3.org/2000/svg" viewBox="0 0 79.2 79.4"><defs><style>.cls-1{fill:#010101;}</style></defs><title>Asset 4</title><g id="Layer_2" data-name="Layer 2"><g id="Layer_1-2" data-name="Layer 1"><path class="cls-1" d="M61.5,26.7A26.64,26.64,0,0,0,67.8,25a22.89,22.89,0,0,1-5.5,5.7v1.4c0,14.5-11,31.2-31.1,31.2a31.18,31.18,0,0,1-16.8-4.9,21.75,21.75,0,0,0,2.6.1,22.39,22.39,0,0,0,13.6-4.7,11,11,0,0,1-10.2-7.6,14.92,14.92,0,0,0,2.1.2,9.25,9.25,0,0,0,2.9-.4,10.94,10.94,0,0,1-8.8-10.7v-.1a12,12,0,0,0,4.9,1.4,11.09,11.09,0,0,1-4.9-9.1A10.32,10.32,0,0,1,18.1,22,31.24,31.24,0,0,0,40.6,33.5a10.07,10.07,0,0,1-.3-2.5A11,11,0,0,1,51.2,20a10.65,10.65,0,0,1,8,3.5,20.71,20.71,0,0,0,6.9-2.7,10,10,0,0,1-4.6,5.9m17.7,13A39.6,39.6,0,1,0,39.6,79.4,39.58,39.58,0,0,0,79.2,39.7"/></g></g></svg>