<svg xmlns="http://www.w3.org/2000/svg" viewBox="0 0 79.2 79.4"><defs><style>.cls-1{fill:#010101;}.cls-2{fill:#fff;}</style></defs><title>Asset 5</title><g id="Layer_2" data-name="Layer 2"><g id="Layer_1-2" data-name="Layer 1"><path class="cls-1" d="M79.2,39.7A39.6,39.6,0,1,0,39.6,79.4,39.58,39.58,0,0,0,79.2,39.7"/><path class="cls-2" d="M65.3,28.4c-.2,5.3-3.9,12.5-11.1,21.7-7.4,9.6-13.6,14.4-18.7,14.4-3.2,0-5.8-2.9-8-8.8C26,50.3,24.6,45,23.1,39.6c-1.6-5.8-3.4-8.8-5.2-8.8-.4,0-1.8.9-4.3,2.6L11,30.1c2.7-2.4,5.3-4.7,7.9-7.1,3.6-3.1,6.3-4.7,8-4.9q6.3-.6,7.8,8.7c1.1,6.7,1.8,10.8,2.2,12.4,1.2,5.5,2.6,8.3,4,8.3q1.65,0,5.1-5.4c2.3-3.6,3.5-6.3,3.7-8.2.3-3.1-.9-4.6-3.7-4.6a10,10,0,0,0-4,.9c2.7-8.7,7.8-13,15.3-12.7C63,17.7,65.7,21.3,65.3,28.4Z"/></g></g></svg>